<?xml version="1.0" encoding="iso-8859-1"?>
<!-- Generator: Adobe Illustrator 16.0.0, SVG Export Plug-In . SVG Version: 6.00 Build 0)  -->
<!DOCTYPE svg PUBLIC "-//W3C//DTD SVG 1.1//EN" "http://www.w3.org/Graphics/SVG/1.1/DTD/svg11.dtd">
<svg version="1.1" id="Capa_1" xmlns="http://www.w3.org/2000/svg" xmlns:xlink="http://www.w3.org/1999/xlink" x="0px" y="0px"
	 width="45.661px" height="45.662px" viewBox="0 0 45.661 45.662" style="enable-background:new 0 0 45.661 45.662;"
	 xml:space="preserve">
<g>
	<g>
		<g>
			<path d="M31.297,1.723c-2.163-2.164-5.669-2.167-7.841-0.015c-2.171-2.152-5.676-2.149-7.842,0.015
				c-2.169,2.167-2.169,5.688,0,7.856c0.106,0.105,5.255,5.23,7.15,7.117c0.383,0.381,1,0.381,1.383,0
				c1.896-1.887,7.045-7.012,7.148-7.117C33.467,7.41,33.467,3.89,31.297,1.723z"/>
		</g>
		<g>
			<path d="M44.028,29.856l-6.706-6.298c-1.547-1.453-3.59-2.262-5.713-2.262H18.515c-1.389,0-2.514,1.126-2.514,2.515
				s1.125,2.513,2.514,2.513h9.492c0.864,0,1.565,0.7,1.565,1.564s-0.701,1.565-1.565,1.565H11.843
				c-0.352,0-0.692-0.118-0.968-0.335l-6.808-5.355c-1.089-0.857-2.672-0.672-3.529,0.419c-0.858,1.093-0.67,2.671,0.421,3.53
				l10.473,8.241c0.46,0.36,1.008,0.538,1.552,0.538c0.002,0,0.002,0,0.002,0V36.49h18.875c0.408,0,0.799,0.158,1.092,0.442
				l8.087,7.861c0.784,0.763,1.95,0.98,2.958,0.556s1.663-1.414,1.663-2.509v-8.992C45.661,32.355,45.074,30.923,44.028,29.856z"/>
		</g>
	</g>
</g>
<g>
</g>
<g>
</g>
<g>
</g>
<g>
</g>
<g>
</g>
<g>
</g>
<g>
</g>
<g>
</g>
<g>
</g>
<g>
</g>
<g>
</g>
<g>
</g>
<g>
</g>
<g>
</g>
<g>
</g>
</svg>
