<?xml version="1.0" encoding="iso-8859-1"?>
<!-- Generator: Adobe Illustrator 19.0.0, SVG Export Plug-In . SVG Version: 6.00 Build 0)  -->
<svg version="1.1" id="Layer_1" xmlns="http://www.w3.org/2000/svg" xmlns:xlink="http://www.w3.org/1999/xlink" x="0px" y="0px"
	 viewBox="0 0 511.995 511.995" style="enable-background:new 0 0 511.995 511.995;" xml:space="preserve">
<g>
	<g>
		<circle cx="114.454" cy="70.568" r="39.21"/>
	</g>
</g>
<g>
	<g>
		<path d="M271.346,106.532c-7.029-6.657-17.987-6.853-25.261-0.661c-8.532,7.264-44.571,37.947-49.83,42.423l-69.172-19.815
			l28.997,0.69c-4.749-4.651-11.237-7.535-18.409-7.567l-37.753-0.115c-4.63-0.014-9.209,0.958-13.434,2.853l-75.302,33.779
			C2.374,162.067-2.049,172.014,0.921,181.2l26.874,83.149c3.213,9.941,13.876,15.397,23.82,12.183
			c9.942-3.213,15.397-13.878,12.183-23.82l-21.656-67.008l32.262-14.465c0.849,114.413,0.904,102.829,0.485,105.452l-12.961,81.098
			L24.76,449.387c-4.714,11.618,0.882,24.858,12.501,29.573c11.619,4.714,24.859-0.884,29.573-12.501l38.141-93.996
			c0.646-1.593,1.11-3.255,1.382-4.954l12.253-76.665l19.932,77.555l1.877,89.996c0.258,12.375,10.37,22.23,22.689,22.229
			c0.16,0,0.322-0.001,0.483-0.004c12.536-0.261,22.486-10.635,22.225-23.171l-1.932-92.626c-0.037-1.748-0.275-3.485-0.709-5.178
			l-19.68-76.572l0.37-91.405l-44.485-25.857l75.035,22.606c0.006,0.001,0.011,0.002,0.017,0.004
			c6.189,1.765,12.765,0.209,17.458-3.786l58.725-49.957C279.109,127.449,279.597,114.352,271.346,106.532z"/>
	</g>
</g>
<g>
	<g>
		<path d="M469.52,382.635l-44.286-32.093c0.745-14.97-0.889-36.862-2.226-51.227c-0.352-3.78,0.878-7.536,3.393-10.381
			c2.515-2.844,6.096-4.532,9.891-4.642c8.816-0.256,16.422-6.258,18.722-14.77l2.819-10.434c0.634-2.346,0.226-4.851-1.118-6.875
			c-1.344-2.024-3.496-3.37-5.903-3.696l-13.232-1.788c-6.344-8.176-16.717-12.133-26.895-10.263l-0.271,0.05
			c2.37,3.906,4.833,8.858,6.498,12.919c2.041,4.975,8.252,20.113-1.07,28.877c-9.063,8.521-23.569,2.561-34.377-3.613
			c-2.149,9.329-4.011,17.612-4.011,17.612l-79.611,50.118c-4.708,2.964-8.588,6.972-11.4,11.647
			c-11.553,1.872-20.531,0.258-30.921-4.019c-9.291-4.062-18.541-10.261-26.156-18.237c-1.355-1.414-3.568-1.704-5.262-0.588
			c-1.91,1.258-2.439,3.825-1.181,5.735c6.225,9.459,15.048,18.562,25.673,25.694c9.437,6.089,18.397,9.916,30.388,11.669
			c-1.663,6.042-0.735,14.973,0.294,19.822c2.506,11.809,10.11,29.914,17.366,41.127l-0.327,33.841
			c-0.061,6.3,4.998,11.458,11.298,11.518c0.039,0,0.075,0,0.113,0c6.25,0,11.347-5.036,11.407-11.299l0.289-29.942
			c8.416-11.069,14.315-29.514,15.684-42.891c0.792-7.734-0.007-16.174-3.542-24.199c-1.365-3.098,0.04-6.714,3.138-8.079
			c3.096-1.365,6.714,0.041,8.078,3.137c3.079,6.989,4.674,14.196,4.929,21.161c24.135-7.117,49.972-14.933,64.265-19.408
			l44.151,31.997c5.101,3.697,12.235,2.558,15.933-2.543C475.761,393.467,474.624,386.334,469.52,382.635z"/>
	</g>
</g>
<g>
	<g>
		<path d="M398.636,238.832c-2.821-3.002-10.68-1.876-16.514,3.609c-5.836,5.487-7.441,13.259-4.62,16.259
			c2.821,3,24.95,17.059,30.786,11.573C414.123,264.786,401.457,241.833,398.636,238.832z"/>
	</g>
</g>
<g>
	<g>
		<ellipse transform="matrix(0.9922 -0.1245 0.1245 0.9922 -8.5879 58.0214)" cx="459.92" cy="97.72" rx="52.461" ry="12.07"/>
	</g>
</g>
<g>
</g>
<g>
</g>
<g>
</g>
<g>
</g>
<g>
</g>
<g>
</g>
<g>
</g>
<g>
</g>
<g>
</g>
<g>
</g>
<g>
</g>
<g>
</g>
<g>
</g>
<g>
</g>
<g>
</g>
</svg>
