<?xml version="1.0" encoding="iso-8859-1"?>
<!-- Generator: Adobe Illustrator 19.0.0, SVG Export Plug-In . SVG Version: 6.00 Build 0)  -->
<svg version="1.1" id="Layer_1" xmlns="http://www.w3.org/2000/svg" xmlns:xlink="http://www.w3.org/1999/xlink" x="0px" y="0px"
	 viewBox="0 0 512 512" style="enable-background:new 0 0 512 512;" xml:space="preserve">
<g>
	<g>
		<path d="M356.492,318.112c-7.557-2.669-15.203-0.528-16.575,3.357c-1.371,3.884-3.71,30.008,3.846,32.677
			c7.556,2.669,22.145-19.127,23.517-23.012C368.653,327.25,364.048,320.782,356.492,318.112z"/>
	</g>
</g>
<g>
	<g>
		<path d="M509.447,421.942c-2.017-0.736-4.248,0.302-4.985,2.318l-0.081,0.224c-1.342,3.685-3.028,7.271-4.815,10.485
			c-6.256,11.371-15.653,21.636-26.209,26.587c-0.889-10.344-6.421-24.078-35.228-49.951c-51.017-33.755-63.291-50.33-63.291-50.33
			s-2.931-5.13-6.601-11.456c-7.195,9.096-17.166,18.615-28.15,14.736c-12.07-4.263-12.49-20.629-12.628-26.006
			c-0.112-4.389,0.144-9.917,0.739-14.449l-0.268,0.063c-10.073,2.393-17.973,10.201-20.484,20.245l-11.393,6.975
			c-4.348,2.661-5.363,8.544-2.164,12.51l6.79,8.415c5.54,6.867,14.925,9.292,23.099,5.972c3.519-1.43,7.479-1.329,10.929,0.26
			s6.09,4.533,7.293,8.136c4.653,13.941,12.174,35.153,18.992,48.526l-12.623,58.109c-1.338,6.16,2.571,12.239,8.732,13.577
			c6.17,1.339,12.241-2.58,13.577-8.732l9.403-43.286c5.539,1.885,12.744,3.373,20.56,4.842c2.102-6.196,5.61-12.015,10.54-16.946
			c2.249-2.247,5.89-2.247,8.138,0c2.316,2.316,2.129,6.008,0,8.137c-8.952,8.952-11.563,21.709-8.016,32.906h-11.888h-1.369
			c-6.304,0-11.414,5.11-11.414,11.414c0,6.304,5.11,11.414,11.414,11.414c48.612,0,42.273-0.02,48.952,0.026
			c11.41,0,21.92-12.28,25.213-23.993c15.621-7.37,29.325-22.37,36.5-43.734c1.339-3.939,2.489-8.266,3.236-12.699
			C512.254,424.427,511.236,422.595,509.447,421.942z"/>
	</g>
</g>
<g>
	<g>
		<path d="M41.176,493.343l3.13-33.409c-11.113-16.057-12.502-40.105-8.028-55.515c-12.68-6.418-25.862-18.086-35.955-34.23
			L0,484.84c-0.037,13.319,10.73,24.146,24.048,24.184c0.023,0,0.047,0,0.07,0c6.953,0,13.204-2.962,17.607-7.674
			C41.126,498.793,40.918,496.099,41.176,493.343z"/>
	</g>
</g>
<g>
	<g>
		<path d="M93.71,468.592l-2.758,29.416c-0.364,3.884-1.598,7.471-3.48,10.603c11.208-2.049,19.724-11.831,19.758-23.634
			l0.094-33.177C102.916,458.935,98.41,464.509,93.71,468.592z"/>
	</g>
</g>
<g>
	<g>
		<circle cx="51.439" cy="47.35" r="44.374"/>
	</g>
</g>
<g>
	<g>
		<path d="M267.909,348.47l-11.618-7.113c-2.481-9.923-10.176-18.103-21.162-20.71c0.607,4.622,0.868,10.259,0.754,14.735
			c-0.14,5.484-0.569,22.173-12.877,26.52c-12.018,4.244-30.806-17.25-30.902-17.121c-21.402-23.869-38.663-52.29-49.62-79.513
			c0.404-0.401,0.811-0.798,1.19-1.237c7.715-8.961,6.703-22.48-2.257-30.194l-54.27-46.716l-20.432-51.131l32.631,39.25
			l8.561,3.967v-42.38c0-15.406-12.488-27.894-27.894-27.894H28.933c-15.406,0-27.894,12.488-27.894,27.894
			c0,179.063-0.388,118.121-0.607,195.44c7.53-3.826,17.301-2.211,23.187,7.016c5.562,8.632,15.258,17.918,24.963,22.286
			c0.204-71.968,0.238-67.159,0.081-68.864h10.988c-0.165,1.773-0.1-3.685-0.314,72.014c3.342,0.506,7.418,0.293,10.889-0.264
			c8.812-4.279,13.465-4.32,37.367-7.855c0.188-66.546,0.314-70.544,0.314-70.544s-60.56-50.919-71.374-60.217
			c-3.265-2.807-5.074-6.729-5.352-10.71l-4.23-63.246l22.376,55.993c1.277,3.196,3.306,6.035,5.914,8.281l58.236,50.133
			c3.898,3.355,8.658,5.044,13.428,5.162c12.042,30.227,31.245,61.176,55.042,87c-0.001,0.001,0.564,0.584,0.563,0.584
			c-78.323,11.007-92.908,13.856-108.135,18.296c-0.808,0.109,1.276-0.218-3.559,0.557c-8.608,1.47-20.955-0.232-31.131-5.828
			c-17.312-8.933-27.275-25.845-28.265-26.96c-3.008-3.384-8.635-0.071-6.877,4.266c5.607,13.831,15.849,27.487,26.4,35.685
			c6.32,5.129,14.961,9.913,23.216,12.318c-11.013,15.94-8.51,44.809,3.946,58.51l-3.629,38.713
			c-0.6,6.401,4.103,12.075,10.504,12.675c6.375,0.602,12.073-4.083,12.675-10.503c3.039-32.407,2.766-29.508,3.314-35.346
			c7.398-4.371,13.679-13.839,18.261-22.267l-0.215-0.106c4.232-6.709,6.647-15.104,6.647-24.051c0-3.453,2.801-6.253,6.253-6.253
			c3.452,0,6.253,2.8,6.253,6.253c0,7.792-1.475,15.177-4.102,21.784c17.364,2.239,52.436,6.611,62.355,7.674l-1.298,50.929
			c-0.164,6.426,4.913,11.768,11.34,11.932c0.101,0.002,0.203,0.004,0.302,0.004c6.29,0,11.47-5.018,11.63-11.344l1.494-58.648
			c7.755-14.541,14.587-33.408,19.911-49.126c1.275-3.752,2.394-9.13,8.696-12.033c8.756-4.036,11.503,2.32,21.383,1.06
			c2.78-0.352,5.342-1.207,7.851-2.697c0.134-0.079,0.269-0.152,0.401-0.234c3.633-2.271,12.237-12.701,13.264-15.232
			C272.984,355.139,271.491,350.663,267.909,348.47z"/>
	</g>
</g>
<g>
	<g>
		<path d="M223.177,317.966c-1.399-3.962-9.197-6.145-16.902-3.423c-7.705,2.722-12.402,9.319-11.002,13.28
			c1.401,3.963,16.279,26.19,23.983,23.467C226.96,348.568,224.576,321.927,223.177,317.966z"/>
	</g>
</g>
<g>
</g>
<g>
</g>
<g>
</g>
<g>
</g>
<g>
</g>
<g>
</g>
<g>
</g>
<g>
</g>
<g>
</g>
<g>
</g>
<g>
</g>
<g>
</g>
<g>
</g>
<g>
</g>
<g>
</g>
</svg>
